<svg xmlns="http://www.w3.org/2000/svg" xmlns:xlink="http://www.w3.org/1999/xlink" width="500" zoomAndPan="magnify" viewBox="0 0 375 374.999991" height="500" preserveAspectRatio="xMidYMid meet" version="1.0"><defs><clipPath id="7bee521694"><path d="M 34 226 L 346 226 L 346 348.46875 L 34 348.46875 Z M 34 226 " clip-rule="nonzero"/></clipPath><clipPath id="339bb0b316"><path d="M 34 26.71875 L 341 26.71875 L 341 302 L 34 302 Z M 34 26.71875 " clip-rule="nonzero"/></clipPath><clipPath id="04212ef100"><path d="M 272 207.964844 L 278 207.964844 L 278 215 L 272 215 Z M 272 207.964844 " clip-rule="nonzero"/></clipPath><clipPath id="de8d0bbc33"><path d="M 268.097656 213 L 274 213 L 274 221 L 268.097656 221 Z M 268.097656 213 " clip-rule="nonzero"/></clipPath><clipPath id="d7f4da435e"><path d="M 268.097656 207.964844 L 274 207.964844 L 274 215 L 268.097656 215 Z M 268.097656 207.964844 " clip-rule="nonzero"/></clipPath><clipPath id="f113a158fa"><path d="M 280 208 L 283.847656 208 L 283.847656 213 L 280 213 Z M 280 208 " clip-rule="nonzero"/></clipPath><clipPath id="52a7b388ea"><path d="M 280 211 L 283.847656 211 L 283.847656 217 L 280 217 Z M 280 211 " clip-rule="nonzero"/></clipPath><clipPath id="b768e71c40"><path d="M 275 219 L 279 219 L 279 223.714844 L 275 223.714844 Z M 275 219 " clip-rule="nonzero"/></clipPath><clipPath id="e66606f2cb"><path d="M 277 219 L 282 219 L 282 223.714844 L 277 223.714844 Z M 277 219 " clip-rule="nonzero"/></clipPath></defs><path fill="#d0d1d2" d="M 119.027344 245.8125 L 119.027344 245.117188 L 111.03125 240.03125 L 111.03125 247.152344 L 111.539062 247.46875 L 111.539062 241.050781 Z M 119.027344 245.8125 " fill-opacity="1" fill-rule="nonzero"/><path fill="#d0d1d2" d="M 129.539062 252.773438 L 129.539062 252.082031 L 121.546875 247 L 121.546875 254.105469 L 122.058594 254.429688 L 122.058594 248.011719 Z M 129.539062 252.773438 " fill-opacity="1" fill-rule="nonzero"/><path fill="#d0d1d2" d="M 140.054688 259.738281 L 140.054688 259.042969 L 132.058594 253.953125 L 132.058594 261.066406 L 132.566406 261.394531 L 132.566406 254.976562 Z M 140.054688 259.738281 " fill-opacity="1" fill-rule="nonzero"/><path fill="#d0d1d2" d="M 119.027344 258.875 L 119.027344 258.171875 L 111.03125 253.09375 L 111.03125 260.203125 L 111.539062 260.523438 L 111.539062 254.113281 Z M 119.027344 258.875 " fill-opacity="1" fill-rule="nonzero"/><path fill="#d0d1d2" d="M 129.539062 265.835938 L 129.539062 265.140625 L 121.546875 260.054688 L 121.546875 267.160156 L 122.058594 267.492188 L 122.058594 261.074219 Z M 129.539062 265.835938 " fill-opacity="1" fill-rule="nonzero"/><path fill="#d0d1d2" d="M 140.054688 272.796875 L 140.054688 272.105469 L 132.058594 267.015625 L 132.058594 274.121094 L 132.566406 274.445312 L 132.566406 268.027344 Z M 140.054688 272.796875 " fill-opacity="1" fill-rule="nonzero"/><path fill="#d0d1d2" d="M 119.027344 271.929688 L 119.027344 271.234375 L 111.03125 266.15625 L 111.03125 273.257812 L 111.539062 273.585938 L 111.539062 267.175781 Z M 119.027344 271.929688 " fill-opacity="1" fill-rule="nonzero"/><path fill="#d0d1d2" d="M 129.539062 278.890625 L 129.539062 278.195312 L 121.546875 273.117188 L 121.546875 280.21875 L 122.058594 280.546875 L 122.058594 274.128906 Z M 129.539062 278.890625 " fill-opacity="1" fill-rule="nonzero"/><path fill="#d0d1d2" d="M 140.054688 285.851562 L 140.054688 285.15625 L 132.058594 280.070312 L 132.058594 287.183594 L 132.566406 287.5 L 132.566406 281.089844 Z M 140.054688 285.851562 " fill-opacity="1" fill-rule="nonzero"/><g clip-path="url(#7bee521694)"><path fill="#b1a1ed" d="M 214.953125 296.921875 L 223.453125 294.703125 L 218.917969 276.730469 L 345.671875 243.636719 L 341.394531 226.726562 L 34.996094 306.726562 L 39.253906 323.648438 L 197.507812 282.328125 L 202.042969 300.292969 L 208.519531 298.601562 L 221.054688 348.28125 L 229.511719 346.082031 L 216.980469 296.394531 Z M 214.953125 296.921875 " fill-opacity="1" fill-rule="nonzero"/></g><g clip-path="url(#339bb0b316)"><path fill="#655c97" d="M 121.546875 279.046875 L 121.546875 273.117188 L 128.207031 277.351562 L 133.78125 275.910156 L 132.566406 275.148438 L 132.566406 274.445312 L 132.058594 274.128906 L 132.058594 267.023438 L 140.054688 272.113281 L 140.054688 272.804688 L 140.566406 273.125 L 140.566406 274.179688 L 164.546875 268.019531 L 164.546875 256.558594 L 177.390625 264.722656 L 195.40625 260.097656 L 194.351562 259.425781 L 194.351562 239.277344 L 217.019531 253.6875 L 217.019531 254.546875 L 233.789062 250.238281 L 225.597656 245.035156 L 225.597656 243.070312 L 224.148438 242.15625 L 224.148438 222.007812 L 246.816406 236.417969 L 246.816406 238.382812 L 248.257812 239.304688 L 248.257812 246.53125 L 305.640625 231.804688 L 305.640625 224.9375 L 313.332031 229.832031 L 318.910156 228.398438 L 316.667969 226.96875 L 316.667969 226.273438 L 316.160156 225.957031 L 316.160156 218.84375 L 324.148438 223.933594 L 324.148438 224.625 L 324.660156 224.953125 L 324.660156 226.925781 L 326.675781 226.417969 L 326.675781 225.804688 L 327.355469 226.234375 L 333.238281 224.726562 L 327.1875 220.878906 L 327.1875 220.183594 L 326.683594 219.867188 L 326.683594 212.753906 L 334.675781 217.839844 L 334.675781 218.535156 L 335.1875 218.859375 L 335.1875 224.234375 L 340.023438 222.996094 L 340.023438 207.875 L 300.8125 169.945312 L 300.8125 169.367188 L 252.457031 204.519531 L 252.457031 204.542969 L 248.640625 207.324219 L 248.640625 207.296875 L 252.457031 204.519531 L 252.457031 92.453125 L 151.585938 26.71875 L 87.148438 92.445312 L 87.148438 208.761719 L 34.15625 232.292969 L 34.15625 301.472656 Z M 316.175781 205.765625 L 324.167969 210.855469 L 324.167969 211.554688 L 324.675781 211.875 L 324.675781 218.988281 L 316.6875 213.898438 L 316.6875 213.195312 L 316.175781 212.878906 Z M 305.65625 198.8125 L 313.65625 203.890625 L 313.65625 204.59375 L 314.160156 204.914062 L 314.160156 212.015625 L 306.160156 206.929688 L 306.160156 206.242188 L 305.648438 205.917969 L 305.648438 198.8125 Z M 305.65625 211.867188 L 313.65625 216.953125 L 313.65625 217.648438 L 314.160156 217.972656 L 314.160156 225.085938 L 306.160156 220 L 306.160156 219.304688 L 305.648438 218.988281 L 305.648438 211.867188 Z M 224.167969 110.960938 L 246.832031 125.371094 L 246.832031 127.335938 L 248.273438 128.257812 L 248.273438 148.40625 L 225.605469 134 L 225.605469 132.03125 L 224.15625 131.121094 L 224.15625 110.960938 Z M 224.167969 147.972656 L 246.832031 162.378906 L 246.832031 164.347656 L 248.273438 165.269531 L 248.273438 185.417969 L 225.605469 171.007812 L 225.605469 169.042969 L 224.15625 168.128906 L 224.15625 147.972656 Z M 224.167969 184.980469 L 246.832031 199.390625 L 246.832031 201.355469 L 248.273438 202.277344 L 248.273438 222.425781 L 225.605469 208.015625 L 225.605469 206.050781 L 224.15625 205.128906 L 224.15625 184.980469 Z M 194.359375 91.230469 L 217.027344 105.640625 L 217.027344 107.605469 L 218.476562 108.527344 L 218.476562 128.675781 L 195.808594 114.269531 L 195.808594 112.300781 L 194.371094 111.390625 L 194.371094 91.230469 Z M 194.359375 128.242188 L 217.027344 142.648438 L 217.027344 144.617188 L 218.476562 145.535156 L 218.476562 165.6875 L 195.808594 151.277344 L 195.808594 149.3125 L 194.371094 148.390625 L 194.371094 128.242188 Z M 194.359375 165.25 L 217.027344 179.660156 L 217.027344 181.625 L 218.476562 182.546875 L 218.476562 202.695312 L 195.808594 188.285156 L 195.808594 186.320312 L 194.371094 185.40625 L 194.371094 165.25 Z M 194.359375 202.261719 L 217.027344 216.667969 L 217.027344 218.636719 L 218.476562 219.554688 L 218.476562 239.703125 L 195.808594 225.296875 L 195.808594 223.328125 L 194.371094 222.410156 L 194.371094 202.261719 Z M 164.546875 71.5 L 187.214844 85.910156 L 187.214844 87.875 L 188.664062 88.796875 L 188.664062 108.945312 L 165.996094 94.539062 L 165.996094 92.570312 L 164.554688 91.652344 L 164.554688 71.5 Z M 164.546875 108.519531 L 187.214844 122.917969 L 187.214844 124.894531 L 188.664062 125.816406 L 188.664062 145.964844 L 165.996094 131.554688 L 165.996094 129.589844 L 164.554688 128.667969 L 164.554688 108.519531 Z M 164.546875 145.519531 L 187.214844 159.929688 L 187.214844 161.902344 L 188.664062 162.824219 L 188.664062 182.972656 L 165.996094 168.574219 L 165.996094 166.605469 L 164.554688 165.6875 L 164.554688 145.519531 Z M 164.546875 182.53125 L 187.214844 196.9375 L 187.214844 198.90625 L 188.664062 199.824219 L 188.664062 219.972656 L 165.996094 205.566406 L 165.996094 203.597656 L 164.554688 202.679688 L 164.554688 182.53125 Z M 164.546875 219.539062 L 187.214844 233.949219 L 187.214844 235.921875 L 188.664062 236.84375 L 188.664062 256.992188 L 165.996094 242.582031 L 165.996094 240.617188 L 164.554688 239.695312 L 164.554688 219.539062 Z M 119.53125 279.359375 L 111.539062 274.269531 L 111.539062 273.578125 L 111.03125 273.25 L 111.03125 266.136719 L 119.019531 271.226562 L 119.019531 271.917969 L 119.53125 272.238281 Z M 119.53125 266.304688 L 111.539062 261.226562 L 111.539062 260.53125 L 111.03125 260.203125 L 111.03125 253.09375 L 119.019531 258.171875 L 119.019531 258.875 L 119.53125 259.191406 Z M 119.53125 253.242188 L 111.539062 248.164062 L 111.539062 247.46875 L 111.03125 247.152344 L 111.03125 240.039062 L 119.019531 245.125 L 119.019531 245.820312 L 119.53125 246.148438 Z M 130.046875 273.265625 L 122.058594 268.1875 L 122.058594 267.492188 L 121.546875 267.167969 L 121.546875 260.0625 L 129.546875 265.148438 L 129.546875 265.84375 L 130.058594 266.171875 L 130.058594 273.265625 Z M 130.046875 260.214844 L 122.058594 255.125 L 122.058594 254.429688 L 121.546875 254.105469 L 121.546875 247 L 129.546875 252.089844 L 129.546875 252.78125 L 130.058594 253.101562 L 130.058594 260.214844 Z M 140.566406 267.175781 L 132.566406 262.085938 L 132.566406 261.394531 L 132.058594 261.066406 L 132.058594 253.953125 L 140.054688 259.035156 L 140.054688 259.726562 L 140.566406 260.054688 Z M 140.566406 267.175781 " fill-opacity="1" fill-rule="nonzero"/></g><path fill="#545454" d="M 34.15625 303.605469 L 34.15625 307.0625 C 34.433594 306.988281 34.710938 306.921875 34.996094 306.835938 Z M 34.15625 303.605469 " fill-opacity="1" fill-rule="nonzero"/><path fill="#b1a1ed" d="M 293.75 143.46875 L 306.710938 141.980469 L 293.425781 140.441406 L 292.203125 130.625 L 290.988281 140.417969 L 278.136719 141.980469 L 290.65625 143.503906 L 292.203125 156.222656 Z M 293.75 143.46875 " fill-opacity="1" fill-rule="nonzero"/><path fill="#b1a1ed" d="M 304.84375 127.101562 L 315.371094 125.890625 L 304.570312 124.644531 L 303.582031 116.660156 L 302.59375 124.617188 L 292.160156 125.890625 L 302.328125 127.128906 L 303.582031 137.453125 Z M 304.84375 127.101562 " fill-opacity="1" fill-rule="nonzero"/><path fill="#b1a1ed" d="M 277.351562 79.265625 L 285.726562 78.296875 L 277.140625 77.308594 L 276.347656 70.957031 L 275.566406 77.285156 L 267.257812 78.296875 L 275.34375 79.285156 L 276.347656 87.507812 Z M 277.351562 79.265625 " fill-opacity="1" fill-rule="nonzero"/><path fill="#b1a1ed" d="M 360.332031 257.550781 L 375 255.609375 L 359.953125 253.613281 L 358.574219 240.800781 L 357.199219 253.570312 L 342.648438 255.609375 L 356.824219 257.59375 L 358.574219 274.179688 Z M 360.332031 257.550781 " fill-opacity="1" fill-rule="nonzero"/><path fill="#b1a1ed" d="M 18.886719 293.390625 L 34.527344 291.582031 L 18.484375 289.734375 L 17.011719 277.867188 L 15.539062 289.691406 L 0.0273438 291.582031 L 15.148438 293.425781 L 17.011719 308.777344 Z M 18.886719 293.390625 " fill-opacity="1" fill-rule="nonzero"/><path fill="#b1a1ed" d="M 265.03125 68.054688 L 282.707031 66.011719 L 264.582031 63.929688 L 262.917969 50.515625 L 261.257812 63.886719 L 243.722656 66.011719 L 260.808594 68.097656 L 262.917969 85.449219 Z M 265.03125 68.054688 " fill-opacity="1" fill-rule="nonzero"/><path fill="#ffffff" d="M 146.390625 127.699219 L 162.355469 125.855469 L 145.972656 123.972656 L 144.472656 111.847656 L 142.976562 123.933594 L 127.128906 125.855469 L 142.558594 127.738281 L 144.472656 143.421875 Z M 146.390625 127.699219 " fill-opacity="1" fill-rule="nonzero"/><path fill="#ffffff" d="M 130.148438 160.289062 L 140.054688 159.140625 L 129.898438 157.972656 L 128.960938 150.457031 L 128.03125 157.945312 L 118.207031 159.140625 L 127.78125 160.304688 L 128.960938 170.035156 Z M 130.148438 160.289062 " fill-opacity="1" fill-rule="nonzero"/><path fill="#ffffff" d="M 76.699219 237.6875 L 87.550781 236.71875 L 76.421875 235.730469 L 75.402344 229.355469 L 74.386719 235.703125 L 63.628906 236.71875 L 74.105469 237.714844 L 75.402344 245.964844 Z M 76.699219 237.6875 " fill-opacity="1" fill-rule="nonzero"/><path fill="#b1a1ed" d="M 55.953125 177.433594 L 69.367188 175.886719 L 55.613281 174.304688 L 54.355469 164.128906 L 53.09375 174.269531 L 39.796875 175.886719 L 52.75 177.460938 L 54.355469 190.628906 Z M 55.953125 177.433594 " fill-opacity="1" fill-rule="nonzero"/><path fill="#b1a1ed" d="M 29.464844 151.628906 L 49.914062 149.269531 L 28.945312 146.859375 L 27.019531 131.335938 L 25.09375 146.800781 L 4.804688 149.269531 L 24.566406 151.679688 L 27.019531 171.761719 Z M 29.464844 151.628906 " fill-opacity="1" fill-rule="nonzero"/><g clip-path="url(#04212ef100)"><path fill="#ffffff" d="M 272.4375 207.96875 C 272.535156 208.265625 272.542969 209.113281 273.058594 210.628906 C 273.351562 211.488281 273.726562 212.113281 274.066406 212.527344 C 274.796875 213.410156 275.808594 213.894531 277.089844 213.984375 L 272.027344 214.390625 Z M 272.4375 207.96875 " fill-opacity="1" fill-rule="nonzero"/></g><g clip-path="url(#de8d0bbc33)"><path fill="#ffffff" d="M 272.746094 220.226562 C 272.652344 219.933594 272.644531 219.085938 272.128906 217.570312 C 271.832031 216.707031 271.460938 216.085938 271.117188 215.671875 C 270.390625 214.789062 269.375 214.300781 268.097656 214.210938 L 273.15625 213.804688 Z M 272.746094 220.226562 " fill-opacity="1" fill-rule="nonzero"/></g><g clip-path="url(#d7f4da435e)"><path fill="#ffffff" d="M 272.4375 207.96875 C 272.359375 208.269531 272.390625 209.117188 271.953125 210.65625 C 271.703125 211.53125 271.359375 212.171875 271.039062 212.601562 C 270.359375 213.519531 269.371094 214.058594 268.097656 214.210938 L 273.171875 214.363281 Z M 272.4375 207.96875 " fill-opacity="1" fill-rule="nonzero"/></g><path fill="#ffffff" d="M 272.746094 220.226562 C 272.828125 219.929688 272.792969 219.082031 273.234375 217.542969 C 273.484375 216.664062 273.824219 216.027344 274.144531 215.59375 C 274.828125 214.675781 275.816406 214.136719 277.089844 213.984375 L 272.015625 213.835938 Z M 272.746094 220.226562 " fill-opacity="1" fill-rule="nonzero"/><g clip-path="url(#f113a158fa)"><path fill="#ffffff" d="M 280.558594 208.113281 C 280.617188 208.308594 280.617188 208.867188 280.941406 209.867188 C 281.128906 210.433594 281.371094 210.847656 281.589844 211.121094 C 282.0625 211.707031 282.722656 212.035156 283.5625 212.105469 L 280.234375 212.332031 Z M 280.558594 208.113281 " fill-opacity="1" fill-rule="nonzero"/></g><path fill="#ffffff" d="M 280.660156 216.171875 C 280.597656 215.976562 280.601562 215.417969 280.273438 214.417969 C 280.085938 213.851562 279.847656 213.4375 279.625 213.164062 C 279.15625 212.578125 278.492188 212.25 277.652344 212.179688 L 280.980469 211.953125 Z M 280.660156 216.171875 " fill-opacity="1" fill-rule="nonzero"/><path fill="#ffffff" d="M 280.558594 208.113281 C 280.503906 208.308594 280.519531 208.867188 280.214844 209.875 C 280.042969 210.449219 279.816406 210.867188 279.601562 211.148438 C 279.144531 211.746094 278.492188 212.089844 277.652344 212.179688 L 280.988281 212.320312 Z M 280.558594 208.113281 " fill-opacity="1" fill-rule="nonzero"/><g clip-path="url(#52a7b388ea)"><path fill="#ffffff" d="M 280.660156 216.171875 C 280.714844 215.972656 280.699219 215.417969 281 214.410156 C 281.171875 213.835938 281.402344 213.417969 281.617188 213.136719 C 282.070312 212.539062 282.726562 212.195312 283.5625 212.105469 L 280.230469 211.964844 Z M 280.660156 216.171875 " fill-opacity="1" fill-rule="nonzero"/></g><path fill="#ffffff" d="M 278.019531 215.855469 C 278.078125 216.050781 278.074219 216.605469 278.402344 217.605469 C 278.589844 218.175781 278.828125 218.585938 279.050781 218.863281 C 279.519531 219.449219 280.183594 219.777344 281.023438 219.847656 L 277.695312 220.070312 Z M 278.019531 215.855469 " fill-opacity="1" fill-rule="nonzero"/><g clip-path="url(#b768e71c40)"><path fill="#ffffff" d="M 278.117188 223.910156 C 278.058594 223.714844 278.058594 223.160156 277.734375 222.160156 C 277.546875 221.589844 277.308594 221.179688 277.085938 220.902344 C 276.617188 220.316406 275.953125 219.988281 275.113281 219.921875 L 278.441406 219.695312 Z M 278.117188 223.910156 " fill-opacity="1" fill-rule="nonzero"/></g><path fill="#ffffff" d="M 278.015625 215.855469 C 277.960938 216.050781 277.976562 216.609375 277.675781 217.613281 C 277.503906 218.1875 277.273438 218.605469 277.058594 218.886719 C 276.605469 219.484375 275.949219 219.832031 275.113281 219.921875 L 278.445312 220.0625 Z M 278.015625 215.855469 " fill-opacity="1" fill-rule="nonzero"/><g clip-path="url(#e66606f2cb)"><path fill="#ffffff" d="M 278.117188 223.910156 C 278.175781 223.714844 278.160156 223.160156 278.460938 222.152344 C 278.632812 221.578125 278.863281 221.160156 279.074219 220.878906 C 279.53125 220.28125 280.183594 219.9375 281.023438 219.847656 L 277.691406 219.703125 Z M 278.117188 223.910156 " fill-opacity="1" fill-rule="nonzero"/></g></svg>