<svg xmlns="http://www.w3.org/2000/svg" xmlns:xlink="http://www.w3.org/1999/xlink" width="500" zoomAndPan="magnify" viewBox="0 0 375 149.999998" height="200" preserveAspectRatio="xMidYMid meet" version="1.0"><defs><g/></defs><g fill="#655c97" fill-opacity="1"><g transform="translate(9.288058, 84.767069)"><g><path d="M 30.5 -41.265625 L 30.5 -33.21875 L 13.703125 -33.21875 L 13.703125 -24.515625 L 26.28125 -24.515625 L 26.28125 -16.6875 L 13.703125 -16.6875 L 13.703125 0 L 3.640625 0 L 3.640625 -41.265625 Z M 30.5 -41.265625 "/></g></g></g><g fill="#655c97" fill-opacity="1"><g transform="translate(41.438115, 84.767069)"><g><path d="M 23.15625 0.40625 C 19.28125 0.40625 15.722656 -0.492188 12.484375 -2.296875 C 9.253906 -4.097656 6.6875 -6.613281 4.78125 -9.84375 C 2.882812 -13.070312 1.9375 -16.707031 1.9375 -20.75 C 1.9375 -24.78125 2.882812 -28.398438 4.78125 -31.609375 C 6.6875 -34.828125 9.253906 -37.335938 12.484375 -39.140625 C 15.722656 -40.953125 19.28125 -41.859375 23.15625 -41.859375 C 27.039062 -41.859375 30.597656 -40.953125 33.828125 -39.140625 C 37.054688 -37.335938 39.601562 -34.828125 41.46875 -31.609375 C 43.332031 -28.398438 44.265625 -24.78125 44.265625 -20.75 C 44.265625 -16.707031 43.320312 -13.070312 41.4375 -9.84375 C 39.5625 -6.613281 37.015625 -4.097656 33.796875 -2.296875 C 30.585938 -0.492188 27.039062 0.40625 23.15625 0.40625 Z M 23.15625 -8.765625 C 26.445312 -8.765625 29.082031 -9.859375 31.0625 -12.046875 C 33.039062 -14.242188 34.03125 -17.144531 34.03125 -20.75 C 34.03125 -24.394531 33.039062 -27.300781 31.0625 -29.46875 C 29.082031 -31.644531 26.445312 -32.734375 23.15625 -32.734375 C 19.820312 -32.734375 17.164062 -31.65625 15.1875 -29.5 C 13.207031 -27.351562 12.21875 -24.4375 12.21875 -20.75 C 12.21875 -17.101562 13.207031 -14.191406 15.1875 -12.015625 C 17.164062 -9.847656 19.820312 -8.765625 23.15625 -8.765625 Z M 23.15625 -8.765625 "/></g></g></g><g fill="#655c97" fill-opacity="1"><g transform="translate(87.63546, 84.767069)"><g><path d="M 13.515625 -41.265625 L 13.515625 -16.578125 C 13.515625 -14.109375 14.125 -12.207031 15.34375 -10.875 C 16.5625 -9.539062 18.34375 -8.875 20.6875 -8.875 C 23.039062 -8.875 24.84375 -9.539062 26.09375 -10.875 C 27.351562 -12.207031 27.984375 -14.109375 27.984375 -16.578125 L 27.984375 -41.265625 L 38.03125 -41.265625 L 38.03125 -16.640625 C 38.03125 -12.953125 37.242188 -9.832031 35.671875 -7.28125 C 34.109375 -4.738281 32.003906 -2.820312 29.359375 -1.53125 C 26.710938 -0.238281 23.765625 0.40625 20.515625 0.40625 C 17.265625 0.40625 14.351562 -0.226562 11.78125 -1.5 C 9.21875 -2.769531 7.191406 -4.6875 5.703125 -7.25 C 4.210938 -9.820312 3.46875 -12.953125 3.46875 -16.640625 L 3.46875 -41.265625 Z M 13.515625 -41.265625 "/></g></g></g><g fill="#655c97" fill-opacity="1"><g transform="translate(129.072012, 84.767069)"><g><path d="M 40.5625 0 L 30.5 0 L 13.703125 -25.453125 L 13.703125 0 L 3.640625 0 L 3.640625 -41.265625 L 13.703125 -41.265625 L 30.5 -15.6875 L 30.5 -41.265625 L 40.5625 -41.265625 Z M 40.5625 0 "/></g></g></g><g fill="#655c97" fill-opacity="1"><g transform="translate(173.271004, 84.767069)"><g><path d="M 19.109375 -41.265625 C 23.453125 -41.265625 27.25 -40.398438 30.5 -38.671875 C 33.757812 -36.953125 36.28125 -34.535156 38.0625 -31.421875 C 39.84375 -28.304688 40.734375 -24.707031 40.734375 -20.625 C 40.734375 -16.59375 39.84375 -13.007812 38.0625 -9.875 C 36.28125 -6.738281 33.75 -4.304688 30.46875 -2.578125 C 27.195312 -0.859375 23.410156 0 19.109375 0 L 3.640625 0 L 3.640625 -41.265625 Z M 18.453125 -8.703125 C 22.253906 -8.703125 25.210938 -9.738281 27.328125 -11.8125 C 29.441406 -13.894531 30.5 -16.832031 30.5 -20.625 C 30.5 -24.425781 29.441406 -27.382812 27.328125 -29.5 C 25.210938 -31.625 22.253906 -32.6875 18.453125 -32.6875 L 13.703125 -32.6875 L 13.703125 -8.703125 Z M 18.453125 -8.703125 "/></g></g></g><g fill="#655c97" fill-opacity="1"><g transform="translate(216.000617, 84.767069)"><g><path d="M 60.421875 -41.265625 L 49.671875 0 L 37.5 0 L 30.921875 -27.15625 L 24.09375 0 L 11.9375 0 L 1.46875 -41.265625 L 12.21875 -41.265625 L 18.15625 -11.234375 L 25.515625 -41.265625 L 36.5625 -41.265625 L 43.609375 -11.234375 L 49.609375 -41.265625 Z M 60.421875 -41.265625 "/></g></g></g><g fill="#655c97" fill-opacity="1"><g transform="translate(277.832195, 84.767069)"><g><path d="M 13.703125 -33.21875 L 13.703125 -24.859375 L 27.15625 -24.859375 L 27.15625 -17.109375 L 13.703125 -17.109375 L 13.703125 -8.046875 L 28.921875 -8.046875 L 28.921875 0 L 3.640625 0 L 3.640625 -41.265625 L 28.921875 -41.265625 L 28.921875 -33.21875 Z M 13.703125 -33.21875 "/></g></g></g><g fill="#655c97" fill-opacity="1"><g transform="translate(309.629616, 84.767069)"><g><path d="M 13.703125 -7.765625 L 26.859375 -7.765625 L 26.859375 0 L 3.640625 0 L 3.640625 -41.265625 L 13.703125 -41.265625 Z M 13.703125 -7.765625 "/></g></g></g><g fill="#655c97" fill-opacity="1"><g transform="translate(337.665421, 84.767069)"><g><path d="M 13.703125 -7.765625 L 26.859375 -7.765625 L 26.859375 0 L 3.640625 0 L 3.640625 -41.265625 L 13.703125 -41.265625 Z M 13.703125 -7.765625 "/></g></g></g><g fill="#655c97" fill-opacity="1"><g transform="translate(106.533988, 107.837166)"><g><path d="M 6.46875 0.15625 C 5.46875 0.15625 4.570312 -0.0195312 3.78125 -0.375 C 3 -0.726562 2.382812 -1.21875 1.9375 -1.84375 C 1.488281 -2.476562 1.253906 -3.210938 1.234375 -4.046875 L 3.34375 -4.046875 C 3.414062 -3.328125 3.707031 -2.722656 4.21875 -2.234375 C 4.738281 -1.753906 5.488281 -1.515625 6.46875 -1.515625 C 7.414062 -1.515625 8.160156 -1.75 8.703125 -2.21875 C 9.242188 -2.695312 9.515625 -3.304688 9.515625 -4.046875 C 9.515625 -4.617188 9.351562 -5.085938 9.03125 -5.453125 C 8.71875 -5.816406 8.320312 -6.09375 7.84375 -6.28125 C 7.363281 -6.46875 6.71875 -6.671875 5.90625 -6.890625 C 4.90625 -7.148438 4.101562 -7.410156 3.5 -7.671875 C 2.90625 -7.929688 2.394531 -8.335938 1.96875 -8.890625 C 1.539062 -9.453125 1.328125 -10.203125 1.328125 -11.140625 C 1.328125 -11.960938 1.535156 -12.691406 1.953125 -13.328125 C 2.367188 -13.972656 2.957031 -14.46875 3.71875 -14.8125 C 4.476562 -15.15625 5.351562 -15.328125 6.34375 -15.328125 C 7.757812 -15.328125 8.921875 -14.972656 9.828125 -14.265625 C 10.734375 -13.554688 11.242188 -12.617188 11.359375 -11.453125 L 9.1875 -11.453125 C 9.113281 -12.023438 8.804688 -12.53125 8.265625 -12.96875 C 7.734375 -13.414062 7.023438 -13.640625 6.140625 -13.640625 C 5.316406 -13.640625 4.644531 -13.425781 4.125 -13 C 3.601562 -12.570312 3.34375 -11.972656 3.34375 -11.203125 C 3.34375 -10.648438 3.5 -10.203125 3.8125 -9.859375 C 4.125 -9.515625 4.503906 -9.25 4.953125 -9.0625 C 5.410156 -8.882812 6.054688 -8.679688 6.890625 -8.453125 C 7.890625 -8.171875 8.691406 -7.894531 9.296875 -7.625 C 9.898438 -7.363281 10.421875 -6.953125 10.859375 -6.390625 C 11.296875 -5.835938 11.515625 -5.082031 11.515625 -4.125 C 11.515625 -3.382812 11.316406 -2.6875 10.921875 -2.03125 C 10.535156 -1.382812 9.957031 -0.859375 9.1875 -0.453125 C 8.414062 -0.046875 7.507812 0.15625 6.46875 0.15625 Z M 6.46875 0.15625 "/></g></g></g><g fill="#655c97" fill-opacity="1"><g transform="translate(128.444501, 107.837166)"><g><path d="M 3.65625 -13.53125 L 3.65625 -8.46875 L 9.171875 -8.46875 L 9.171875 -6.84375 L 3.65625 -6.84375 L 3.65625 -1.625 L 9.8125 -1.625 L 9.8125 0 L 1.671875 0 L 1.671875 -15.15625 L 9.8125 -15.15625 L 9.8125 -13.53125 Z M 3.65625 -13.53125 "/></g></g></g><g fill="#655c97" fill-opacity="1"><g transform="translate(148.748538, 107.837166)"><g><path d="M 9.640625 0 L 6.03125 -6.1875 L 3.65625 -6.1875 L 3.65625 0 L 1.671875 0 L 1.671875 -15.140625 L 6.5625 -15.140625 C 7.707031 -15.140625 8.671875 -14.941406 9.453125 -14.546875 C 10.242188 -14.160156 10.832031 -13.632812 11.21875 -12.96875 C 11.613281 -12.300781 11.8125 -11.539062 11.8125 -10.6875 C 11.8125 -9.644531 11.507812 -8.722656 10.90625 -7.921875 C 10.3125 -7.128906 9.410156 -6.601562 8.203125 -6.34375 L 12.015625 0 Z M 3.65625 -7.78125 L 6.5625 -7.78125 C 7.632812 -7.78125 8.4375 -8.039062 8.96875 -8.5625 C 9.5 -9.09375 9.765625 -9.800781 9.765625 -10.6875 C 9.765625 -11.582031 9.5 -12.273438 8.96875 -12.765625 C 8.445312 -13.265625 7.644531 -13.515625 6.5625 -13.515625 L 3.65625 -13.515625 Z M 3.65625 -7.78125 "/></g></g></g><g fill="#655c97" fill-opacity="1"><g transform="translate(171.114946, 107.837166)"><g><path d="M 14.1875 -15.140625 L 8.46875 0 L 6.1875 0 L 0.484375 -15.140625 L 2.578125 -15.140625 L 7.34375 -2.078125 L 12.09375 -15.140625 Z M 14.1875 -15.140625 "/></g></g></g><g fill="#655c97" fill-opacity="1"><g transform="translate(194.957567, 107.837166)"><g><path d="M 3.65625 -15.140625 L 3.65625 0 L 1.671875 0 L 1.671875 -15.140625 Z M 3.65625 -15.140625 "/></g></g></g><g fill="#655c97" fill-opacity="1"><g transform="translate(209.465263, 107.837166)"><g><path d="M 0.9375 -7.578125 C 0.9375 -9.054688 1.269531 -10.382812 1.9375 -11.5625 C 2.601562 -12.738281 3.507812 -13.660156 4.65625 -14.328125 C 5.8125 -14.992188 7.085938 -15.328125 8.484375 -15.328125 C 10.140625 -15.328125 11.582031 -14.925781 12.8125 -14.125 C 14.039062 -13.332031 14.9375 -12.207031 15.5 -10.75 L 13.140625 -10.75 C 12.722656 -11.664062 12.117188 -12.367188 11.328125 -12.859375 C 10.535156 -13.347656 9.585938 -13.59375 8.484375 -13.59375 C 7.429688 -13.59375 6.484375 -13.347656 5.640625 -12.859375 C 4.804688 -12.367188 4.148438 -11.671875 3.671875 -10.765625 C 3.191406 -9.859375 2.953125 -8.796875 2.953125 -7.578125 C 2.953125 -6.378906 3.191406 -5.328125 3.671875 -4.421875 C 4.148438 -3.515625 4.804688 -2.8125 5.640625 -2.3125 C 6.484375 -1.820312 7.429688 -1.578125 8.484375 -1.578125 C 9.585938 -1.578125 10.535156 -1.820312 11.328125 -2.3125 C 12.117188 -2.800781 12.722656 -3.5 13.140625 -4.40625 L 15.5 -4.40625 C 14.9375 -2.957031 14.039062 -1.835938 12.8125 -1.046875 C 11.582031 -0.265625 10.140625 0.125 8.484375 0.125 C 7.085938 0.125 5.8125 -0.203125 4.65625 -0.859375 C 3.507812 -1.515625 2.601562 -2.425781 1.9375 -3.59375 C 1.269531 -4.769531 0.9375 -6.097656 0.9375 -7.578125 Z M 0.9375 -7.578125 "/></g></g></g><g fill="#655c97" fill-opacity="1"><g transform="translate(235.391962, 107.837166)"><g><path d="M 3.65625 -13.53125 L 3.65625 -8.46875 L 9.171875 -8.46875 L 9.171875 -6.84375 L 3.65625 -6.84375 L 3.65625 -1.625 L 9.8125 -1.625 L 9.8125 0 L 1.671875 0 L 1.671875 -15.15625 L 9.8125 -15.15625 L 9.8125 -13.53125 Z M 3.65625 -13.53125 "/></g></g></g><g fill="#655c97" fill-opacity="1"><g transform="translate(255.695996, 107.837166)"><g><path d="M 6.46875 0.15625 C 5.46875 0.15625 4.570312 -0.0195312 3.78125 -0.375 C 3 -0.726562 2.382812 -1.21875 1.9375 -1.84375 C 1.488281 -2.476562 1.253906 -3.210938 1.234375 -4.046875 L 3.34375 -4.046875 C 3.414062 -3.328125 3.707031 -2.722656 4.21875 -2.234375 C 4.738281 -1.753906 5.488281 -1.515625 6.46875 -1.515625 C 7.414062 -1.515625 8.160156 -1.75 8.703125 -2.21875 C 9.242188 -2.695312 9.515625 -3.304688 9.515625 -4.046875 C 9.515625 -4.617188 9.351562 -5.085938 9.03125 -5.453125 C 8.71875 -5.816406 8.320312 -6.09375 7.84375 -6.28125 C 7.363281 -6.46875 6.71875 -6.671875 5.90625 -6.890625 C 4.90625 -7.148438 4.101562 -7.410156 3.5 -7.671875 C 2.90625 -7.929688 2.394531 -8.335938 1.96875 -8.890625 C 1.539062 -9.453125 1.328125 -10.203125 1.328125 -11.140625 C 1.328125 -11.960938 1.535156 -12.691406 1.953125 -13.328125 C 2.367188 -13.972656 2.957031 -14.46875 3.71875 -14.8125 C 4.476562 -15.15625 5.351562 -15.328125 6.34375 -15.328125 C 7.757812 -15.328125 8.921875 -14.972656 9.828125 -14.265625 C 10.734375 -13.554688 11.242188 -12.617188 11.359375 -11.453125 L 9.1875 -11.453125 C 9.113281 -12.023438 8.804688 -12.53125 8.265625 -12.96875 C 7.734375 -13.414062 7.023438 -13.640625 6.140625 -13.640625 C 5.316406 -13.640625 4.644531 -13.425781 4.125 -13 C 3.601562 -12.570312 3.34375 -11.972656 3.34375 -11.203125 C 3.34375 -10.648438 3.5 -10.203125 3.8125 -9.859375 C 4.125 -9.515625 4.503906 -9.25 4.953125 -9.0625 C 5.410156 -8.882812 6.054688 -8.679688 6.890625 -8.453125 C 7.890625 -8.171875 8.691406 -7.894531 9.296875 -7.625 C 9.898438 -7.363281 10.421875 -6.953125 10.859375 -6.390625 C 11.296875 -5.835938 11.515625 -5.082031 11.515625 -4.125 C 11.515625 -3.382812 11.316406 -2.6875 10.921875 -2.03125 C 10.535156 -1.382812 9.957031 -0.859375 9.1875 -0.453125 C 8.414062 -0.046875 7.507812 0.15625 6.46875 0.15625 Z M 6.46875 0.15625 "/></g></g></g></svg>