<svg xmlns="http://www.w3.org/2000/svg" xmlns:xlink="http://www.w3.org/1999/xlink" width="83" zoomAndPan="magnify" viewBox="0 0 62.25 76.499999" height="102" preserveAspectRatio="xMidYMid meet" version="1.0"><defs><clipPath id="3657598e21"><path d="M 43 6.359375 L 53 6.359375 L 53 16 L 43 16 Z M 43 6.359375 " clip-rule="nonzero"/></clipPath><clipPath id="9b9195e136"><path d="M 52 50 L 61.507812 50 L 61.507812 59 L 52 59 Z M 52 50 " clip-rule="nonzero"/></clipPath><clipPath id="34eb2cfe42"><path d="M 42 54 L 56 54 L 56 67.867188 L 42 67.867188 Z M 42 54 " clip-rule="nonzero"/></clipPath><clipPath id="fe4a4a3f86"><path d="M 28.183594 57.914062 L 29 57.914062 L 29 59 L 28.183594 59 Z M 28.183594 57.914062 " clip-rule="nonzero"/></clipPath><clipPath id="d0321da6e6"><path d="M 28.183594 58 L 29 58 L 29 59 L 28.183594 59 Z M 28.183594 58 " clip-rule="nonzero"/></clipPath><clipPath id="5188163c82"><path d="M 28.183594 57.914062 L 29 57.914062 L 29 59 L 28.183594 59 Z M 28.183594 57.914062 " clip-rule="nonzero"/></clipPath><clipPath id="e64f926bd8"><path d="M 28.183594 58 L 29 58 L 29 59 L 28.183594 59 Z M 28.183594 58 " clip-rule="nonzero"/></clipPath><clipPath id="f832a216da"><path d="M 29 57.914062 L 29.667969 57.914062 L 29.667969 59 L 29 59 Z M 29 57.914062 " clip-rule="nonzero"/></clipPath><clipPath id="d72e1d4192"><path d="M 28.183594 58 L 29.667969 58 L 29.667969 59 L 28.183594 59 Z M 28.183594 58 " clip-rule="nonzero"/></clipPath><clipPath id="001ddde594"><path d="M 28.183594 57.914062 L 29.667969 57.914062 L 29.667969 59 L 28.183594 59 Z M 28.183594 57.914062 " clip-rule="nonzero"/></clipPath><clipPath id="572be10d7e"><path d="M 29 58 L 29.667969 58 L 29.667969 59 L 29 59 Z M 29 58 " clip-rule="nonzero"/></clipPath><clipPath id="b58d6b6b7a"><path d="M 28.183594 58 L 29.667969 58 L 29.667969 59 L 28.183594 59 Z M 28.183594 58 " clip-rule="nonzero"/></clipPath><clipPath id="4ba88c391e"><path d="M 28.183594 58 L 29 58 L 29 59.394531 L 28.183594 59.394531 Z M 28.183594 58 " clip-rule="nonzero"/></clipPath><clipPath id="5af74b3fa0"><path d="M 28.183594 58 L 29 58 L 29 59 L 28.183594 59 Z M 28.183594 58 " clip-rule="nonzero"/></clipPath><clipPath id="24311972ef"><path d="M 28.183594 58 L 29.667969 58 L 29.667969 59.394531 L 28.183594 59.394531 Z M 28.183594 58 " clip-rule="nonzero"/></clipPath></defs><path fill="#f2c746" d="M 3.496094 36.480469 L 3.496094 48.910156 C 3.496094 54.957031 8.742188 59.632812 14.675781 58.882812 L 28.210938 57.175781 C 29.03125 57.074219 29.855469 57.074219 30.675781 57.175781 L 44.210938 58.882812 C 50.144531 59.632812 55.390625 54.957031 55.390625 48.910156 L 55.390625 36.480469 L 3.496094 36.480469 " fill-opacity="1" fill-rule="nonzero"/><path fill="#f7e08d" d="M 44.367188 48.574219 L 30.691406 46.859375 C 29.863281 46.757812 29.023438 46.757812 28.199219 46.859375 L 14.519531 48.574219 C 8.519531 49.320312 3.222656 44.640625 3.222656 38.597656 L 3.222656 37.335938 C 3.222656 31.289062 8.519531 26.609375 14.519531 27.363281 L 28.199219 29.070312 C 29.023438 29.171875 29.863281 29.171875 30.691406 29.070312 L 44.367188 27.363281 C 50.367188 26.609375 55.664062 31.289062 55.664062 37.335938 L 55.664062 38.597656 C 55.664062 44.640625 50.367188 49.320312 44.367188 48.574219 " fill-opacity="1" fill-rule="nonzero"/><path fill="#f2c746" d="M 18.519531 43.667969 L 16.332031 43.667969 L 16.332031 41.484375 L 18.519531 41.484375 L 18.519531 43.667969 " fill-opacity="1" fill-rule="nonzero"/><path fill="#f2c746" d="M 14.148438 41.484375 L 11.964844 41.484375 L 11.964844 39.296875 L 14.148438 39.296875 L 14.148438 41.484375 " fill-opacity="1" fill-rule="nonzero"/><path fill="#f2c746" d="M 10.871094 44.761719 L 8.683594 44.761719 L 8.683594 42.578125 L 10.871094 42.578125 L 10.871094 44.761719 " fill-opacity="1" fill-rule="nonzero"/><path fill="#f2c746" d="M 40.367188 33.835938 L 38.183594 33.835938 L 38.183594 31.652344 L 40.367188 31.652344 L 40.367188 33.835938 " fill-opacity="1" fill-rule="nonzero"/><path fill="#f2c746" d="M 44.738281 36.019531 L 42.554688 36.019531 L 42.554688 33.835938 L 44.738281 33.835938 L 44.738281 36.019531 " fill-opacity="1" fill-rule="nonzero"/><path fill="#f2c746" d="M 48.015625 32.742188 L 45.832031 32.742188 L 45.832031 30.558594 L 48.015625 30.558594 L 48.015625 32.742188 " fill-opacity="1" fill-rule="nonzero"/><path fill="#dab541" d="M 36.273438 54.59375 L 34.085938 54.59375 L 34.085938 52.410156 L 36.273438 52.410156 L 36.273438 54.59375 " fill-opacity="1" fill-rule="nonzero"/><path fill="#dab541" d="M 40.640625 52.410156 L 38.457031 52.410156 L 38.457031 50.222656 L 40.640625 50.222656 L 40.640625 52.410156 " fill-opacity="1" fill-rule="nonzero"/><path fill="#f2c746" d="M 45.011719 43.667969 L 42.828125 43.667969 L 42.828125 41.484375 L 45.011719 41.484375 L 45.011719 43.667969 " fill-opacity="1" fill-rule="nonzero"/><path fill="#f2c746" d="M 35.179688 42.578125 L 32.992188 42.578125 L 32.992188 40.390625 L 35.179688 40.390625 L 35.179688 42.578125 " fill-opacity="1" fill-rule="nonzero"/><path fill="#dab541" d="M 23.980469 55.6875 L 21.796875 55.6875 L 21.796875 53.5 L 23.980469 53.5 L 23.980469 55.6875 " fill-opacity="1" fill-rule="nonzero"/><path fill="#dab541" d="M 18.792969 53.5 L 16.605469 53.5 L 16.605469 51.316406 L 18.792969 51.316406 L 18.792969 53.5 " fill-opacity="1" fill-rule="nonzero"/><path fill="#dab541" d="M 13.328125 56.777344 L 11.144531 56.777344 L 11.144531 54.59375 L 13.328125 54.59375 L 13.328125 56.777344 " fill-opacity="1" fill-rule="nonzero"/><path fill="#b9e7e6" d="M 39.550781 17.996094 C 39.550781 19.503906 38.328125 20.726562 36.816406 20.726562 C 35.308594 20.726562 34.085938 19.503906 34.085938 17.996094 C 34.085938 16.484375 35.308594 15.261719 36.816406 15.261719 C 38.328125 15.261719 39.550781 16.484375 39.550781 17.996094 " fill-opacity="1" fill-rule="nonzero"/><g clip-path="url(#3657598e21)"><path fill="#b9e7e6" d="M 52.660156 10.894531 C 52.660156 13.308594 50.703125 15.261719 48.289062 15.261719 C 45.875 15.261719 43.917969 13.308594 43.917969 10.894531 C 43.917969 8.476562 45.875 6.523438 48.289062 6.523438 C 50.703125 6.523438 52.660156 8.476562 52.660156 10.894531 " fill-opacity="1" fill-rule="nonzero"/></g><path fill="#b9e7e6" d="M 23.980469 27.28125 C 23.980469 29.695312 22.027344 31.652344 19.609375 31.652344 C 17.195312 31.652344 15.242188 29.695312 15.242188 27.28125 C 15.242188 24.867188 17.195312 22.910156 19.609375 22.910156 C 22.027344 22.910156 23.980469 24.867188 23.980469 27.28125 " fill-opacity="1" fill-rule="nonzero"/><path fill="#b9e7e6" d="M 8.683594 31.652344 C 8.683594 34.066406 6.726562 36.019531 4.316406 36.019531 C 1.902344 36.019531 -0.0546875 34.066406 -0.0546875 31.652344 C -0.0546875 29.234375 1.902344 27.28125 4.316406 27.28125 C 6.726562 27.28125 8.683594 29.234375 8.683594 31.652344 " fill-opacity="1" fill-rule="nonzero"/><path fill="#b9e7e6" d="M 18.519531 25.097656 C 18.519531 28.714844 15.582031 31.652344 11.964844 31.652344 C 8.34375 31.652344 5.40625 28.714844 5.40625 25.097656 C 5.40625 21.476562 8.34375 18.539062 11.964844 18.539062 C 15.582031 18.539062 18.519531 21.476562 18.519531 25.097656 " fill-opacity="1" fill-rule="nonzero"/><path fill="#b9e7e6" d="M 37.363281 58.964844 C 37.363281 56.546875 39.320312 54.59375 41.734375 54.59375 C 44.148438 54.59375 46.105469 56.546875 46.105469 58.964844 C 46.105469 61.375 44.148438 63.335938 41.734375 63.335938 C 39.320312 63.335938 37.363281 61.375 37.363281 58.964844 " fill-opacity="1" fill-rule="nonzero"/><g clip-path="url(#9b9195e136)"><path fill="#b9e7e6" d="M 52.660156 54.59375 C 52.660156 52.179688 54.613281 50.222656 57.03125 50.222656 C 59.445312 50.222656 61.398438 52.179688 61.398438 54.59375 C 61.398438 57.007812 59.445312 58.964844 57.03125 58.964844 C 54.613281 58.964844 52.660156 57.007812 52.660156 54.59375 " fill-opacity="1" fill-rule="nonzero"/></g><g clip-path="url(#34eb2cfe42)"><path fill="#b9e7e6" d="M 42.828125 61.148438 C 42.828125 57.53125 45.761719 54.59375 49.382812 54.59375 C 53 54.59375 55.9375 57.53125 55.9375 61.148438 C 55.9375 64.769531 53 67.703125 49.382812 67.703125 C 45.761719 67.703125 42.828125 64.769531 42.828125 61.148438 " fill-opacity="1" fill-rule="nonzero"/></g><g clip-path="url(#fe4a4a3f86)"><path fill="#fbf3ec" d="M 28.515625 57.914062 C 28.523438 57.9375 28.523438 58 28.5625 58.117188 C 28.585938 58.179688 28.617188 58.230469 28.640625 58.261719 C 28.695312 58.328125 28.773438 58.363281 28.871094 58.371094 L 28.484375 58.402344 Z M 28.515625 57.914062 " fill-opacity="1" fill-rule="nonzero"/></g><g clip-path="url(#d0321da6e6)"><path fill="#fbf3ec" d="M 28.539062 58.847656 C 28.535156 58.824219 28.53125 58.761719 28.492188 58.644531 C 28.472656 58.578125 28.441406 58.53125 28.417969 58.5 C 28.359375 58.433594 28.285156 58.394531 28.1875 58.390625 L 28.570312 58.359375 Z M 28.539062 58.847656 " fill-opacity="1" fill-rule="nonzero"/></g><g clip-path="url(#5188163c82)"><path fill="#fbf3ec" d="M 28.515625 57.914062 C 28.511719 57.9375 28.515625 58 28.480469 58.117188 C 28.460938 58.183594 28.433594 58.234375 28.410156 58.265625 C 28.359375 58.335938 28.28125 58.378906 28.1875 58.390625 L 28.574219 58.402344 Z M 28.515625 57.914062 " fill-opacity="1" fill-rule="nonzero"/></g><g clip-path="url(#e64f926bd8)"><path fill="#fbf3ec" d="M 28.539062 58.847656 C 28.546875 58.824219 28.542969 58.761719 28.578125 58.644531 C 28.597656 58.578125 28.621094 58.527344 28.648438 58.496094 C 28.699219 58.425781 28.773438 58.382812 28.871094 58.371094 L 28.484375 58.359375 Z M 28.539062 58.847656 " fill-opacity="1" fill-rule="nonzero"/></g><g clip-path="url(#f832a216da)"><path fill="#fbf3ec" d="M 29.136719 57.925781 C 29.140625 57.9375 29.140625 57.980469 29.164062 58.058594 C 29.179688 58.101562 29.199219 58.132812 29.214844 58.152344 C 29.25 58.199219 29.300781 58.222656 29.367188 58.230469 L 29.113281 58.246094 Z M 29.136719 57.925781 " fill-opacity="1" fill-rule="nonzero"/></g><g clip-path="url(#d72e1d4192)"><path fill="#fbf3ec" d="M 29.144531 58.539062 C 29.140625 58.523438 29.140625 58.480469 29.113281 58.40625 C 29.101562 58.363281 29.082031 58.332031 29.066406 58.308594 C 29.03125 58.265625 28.980469 58.238281 28.914062 58.234375 L 29.167969 58.21875 Z M 29.144531 58.539062 " fill-opacity="1" fill-rule="nonzero"/></g><g clip-path="url(#001ddde594)"><path fill="#fbf3ec" d="M 29.136719 57.925781 C 29.132812 57.9375 29.132812 57.980469 29.109375 58.058594 C 29.097656 58.101562 29.078125 58.132812 29.0625 58.15625 C 29.027344 58.199219 28.980469 58.226562 28.914062 58.234375 L 29.167969 58.246094 Z M 29.136719 57.925781 " fill-opacity="1" fill-rule="nonzero"/></g><g clip-path="url(#572be10d7e)"><path fill="#fbf3ec" d="M 29.144531 58.539062 C 29.148438 58.523438 29.148438 58.480469 29.171875 58.40625 C 29.183594 58.359375 29.199219 58.328125 29.21875 58.308594 C 29.25 58.261719 29.300781 58.234375 29.367188 58.230469 L 29.113281 58.21875 Z M 29.144531 58.539062 " fill-opacity="1" fill-rule="nonzero"/></g><g clip-path="url(#b58d6b6b7a)"><path fill="#fbf3ec" d="M 28.941406 58.515625 C 28.949219 58.53125 28.945312 58.570312 28.972656 58.648438 C 28.984375 58.691406 29.003906 58.722656 29.023438 58.742188 C 29.058594 58.789062 29.109375 58.8125 29.171875 58.820312 L 28.917969 58.835938 Z M 28.941406 58.515625 " fill-opacity="1" fill-rule="nonzero"/></g><g clip-path="url(#4ba88c391e)"><path fill="#fbf3ec" d="M 28.949219 59.128906 C 28.945312 59.113281 28.945312 59.070312 28.921875 58.996094 C 28.90625 58.953125 28.886719 58.921875 28.871094 58.898438 C 28.835938 58.855469 28.785156 58.828125 28.722656 58.824219 L 28.976562 58.808594 Z M 28.949219 59.128906 " fill-opacity="1" fill-rule="nonzero"/></g><g clip-path="url(#5af74b3fa0)"><path fill="#fbf3ec" d="M 28.941406 58.515625 C 28.9375 58.53125 28.941406 58.570312 28.917969 58.648438 C 28.902344 58.691406 28.886719 58.722656 28.871094 58.746094 C 28.835938 58.792969 28.785156 58.816406 28.722656 58.824219 L 28.976562 58.835938 Z M 28.941406 58.515625 " fill-opacity="1" fill-rule="nonzero"/></g><g clip-path="url(#24311972ef)"><path fill="#fbf3ec" d="M 28.949219 59.128906 C 28.953125 59.113281 28.953125 59.070312 28.976562 58.996094 C 28.988281 58.949219 29.007812 58.917969 29.023438 58.898438 C 29.058594 58.851562 29.109375 58.824219 29.171875 58.820312 L 28.917969 58.808594 Z M 28.949219 59.128906 " fill-opacity="1" fill-rule="nonzero"/></g></svg>