<svg xmlns="http://www.w3.org/2000/svg" xmlns:xlink="http://www.w3.org/1999/xlink" width="83" zoomAndPan="magnify" viewBox="0 0 62.25 76.499999" height="102" preserveAspectRatio="xMidYMid meet" version="1.0"><defs><clipPath id="bf49a7594f"><path d="M 28.183594 57.914062 L 29 57.914062 L 29 59 L 28.183594 59 Z M 28.183594 57.914062 " clip-rule="nonzero"/></clipPath><clipPath id="84e7d25bce"><path d="M 28.183594 58 L 29 58 L 29 59 L 28.183594 59 Z M 28.183594 58 " clip-rule="nonzero"/></clipPath><clipPath id="52e280e40d"><path d="M 28.183594 57.914062 L 29 57.914062 L 29 59 L 28.183594 59 Z M 28.183594 57.914062 " clip-rule="nonzero"/></clipPath><clipPath id="6defc260fc"><path d="M 28.183594 58 L 29 58 L 29 59 L 28.183594 59 Z M 28.183594 58 " clip-rule="nonzero"/></clipPath><clipPath id="5faf769831"><path d="M 29 57.914062 L 29.667969 57.914062 L 29.667969 59 L 29 59 Z M 29 57.914062 " clip-rule="nonzero"/></clipPath><clipPath id="a66efc5bc1"><path d="M 28.183594 58 L 29.667969 58 L 29.667969 59 L 28.183594 59 Z M 28.183594 58 " clip-rule="nonzero"/></clipPath><clipPath id="e4ba67f700"><path d="M 28.183594 57.914062 L 29.667969 57.914062 L 29.667969 59 L 28.183594 59 Z M 28.183594 57.914062 " clip-rule="nonzero"/></clipPath><clipPath id="9a2166465c"><path d="M 29 58 L 29.667969 58 L 29.667969 59 L 29 59 Z M 29 58 " clip-rule="nonzero"/></clipPath><clipPath id="7eaa72e5bb"><path d="M 28.183594 58 L 29.667969 58 L 29.667969 59 L 28.183594 59 Z M 28.183594 58 " clip-rule="nonzero"/></clipPath><clipPath id="6f2a1f546f"><path d="M 28.183594 58 L 29 58 L 29 59.394531 L 28.183594 59.394531 Z M 28.183594 58 " clip-rule="nonzero"/></clipPath><clipPath id="7543c9c03a"><path d="M 28.183594 58 L 29 58 L 29 59 L 28.183594 59 Z M 28.183594 58 " clip-rule="nonzero"/></clipPath><clipPath id="de99ad6d76"><path d="M 28.183594 58 L 29.667969 58 L 29.667969 59.394531 L 28.183594 59.394531 Z M 28.183594 58 " clip-rule="nonzero"/></clipPath><clipPath id="e9038e46cb"><path d="M 0.722656 1.523438 L 61.507812 1.523438 L 61.507812 69.054688 L 0.722656 69.054688 Z M 0.722656 1.523438 " clip-rule="nonzero"/></clipPath><clipPath id="76e5a7828e"><path d="M 21 71 L 24 71 L 24 72.390625 L 21 72.390625 Z M 21 71 " clip-rule="nonzero"/></clipPath></defs><g clip-path="url(#bf49a7594f)"><path fill="#fbf3ec" d="M 28.515625 57.914062 C 28.523438 57.9375 28.523438 58 28.5625 58.117188 C 28.585938 58.179688 28.617188 58.230469 28.640625 58.261719 C 28.695312 58.328125 28.773438 58.363281 28.871094 58.371094 L 28.484375 58.402344 Z M 28.515625 57.914062 " fill-opacity="1" fill-rule="nonzero"/></g><g clip-path="url(#84e7d25bce)"><path fill="#fbf3ec" d="M 28.539062 58.847656 C 28.535156 58.824219 28.53125 58.761719 28.492188 58.644531 C 28.472656 58.578125 28.441406 58.53125 28.417969 58.5 C 28.359375 58.433594 28.285156 58.394531 28.1875 58.390625 L 28.570312 58.359375 Z M 28.539062 58.847656 " fill-opacity="1" fill-rule="nonzero"/></g><g clip-path="url(#52e280e40d)"><path fill="#fbf3ec" d="M 28.515625 57.914062 C 28.511719 57.9375 28.515625 58 28.480469 58.117188 C 28.460938 58.183594 28.433594 58.234375 28.410156 58.265625 C 28.359375 58.335938 28.28125 58.378906 28.1875 58.390625 L 28.574219 58.402344 Z M 28.515625 57.914062 " fill-opacity="1" fill-rule="nonzero"/></g><g clip-path="url(#6defc260fc)"><path fill="#fbf3ec" d="M 28.539062 58.847656 C 28.546875 58.824219 28.542969 58.761719 28.578125 58.644531 C 28.597656 58.578125 28.621094 58.527344 28.648438 58.496094 C 28.699219 58.425781 28.773438 58.382812 28.871094 58.371094 L 28.484375 58.359375 Z M 28.539062 58.847656 " fill-opacity="1" fill-rule="nonzero"/></g><g clip-path="url(#5faf769831)"><path fill="#fbf3ec" d="M 29.136719 57.925781 C 29.140625 57.9375 29.140625 57.980469 29.164062 58.058594 C 29.179688 58.101562 29.199219 58.132812 29.214844 58.152344 C 29.25 58.199219 29.300781 58.222656 29.367188 58.230469 L 29.113281 58.246094 Z M 29.136719 57.925781 " fill-opacity="1" fill-rule="nonzero"/></g><g clip-path="url(#a66efc5bc1)"><path fill="#fbf3ec" d="M 29.144531 58.539062 C 29.140625 58.523438 29.140625 58.480469 29.113281 58.40625 C 29.101562 58.363281 29.082031 58.332031 29.066406 58.308594 C 29.03125 58.265625 28.980469 58.238281 28.914062 58.234375 L 29.167969 58.21875 Z M 29.144531 58.539062 " fill-opacity="1" fill-rule="nonzero"/></g><g clip-path="url(#e4ba67f700)"><path fill="#fbf3ec" d="M 29.136719 57.925781 C 29.132812 57.9375 29.132812 57.980469 29.109375 58.058594 C 29.097656 58.101562 29.078125 58.132812 29.0625 58.15625 C 29.027344 58.199219 28.980469 58.226562 28.914062 58.234375 L 29.167969 58.246094 Z M 29.136719 57.925781 " fill-opacity="1" fill-rule="nonzero"/></g><g clip-path="url(#9a2166465c)"><path fill="#fbf3ec" d="M 29.144531 58.539062 C 29.148438 58.523438 29.148438 58.480469 29.171875 58.40625 C 29.183594 58.359375 29.199219 58.328125 29.21875 58.308594 C 29.25 58.261719 29.300781 58.234375 29.367188 58.230469 L 29.113281 58.21875 Z M 29.144531 58.539062 " fill-opacity="1" fill-rule="nonzero"/></g><g clip-path="url(#7eaa72e5bb)"><path fill="#fbf3ec" d="M 28.941406 58.515625 C 28.949219 58.53125 28.945312 58.570312 28.972656 58.648438 C 28.984375 58.691406 29.003906 58.722656 29.023438 58.742188 C 29.058594 58.789062 29.109375 58.8125 29.171875 58.820312 L 28.917969 58.835938 Z M 28.941406 58.515625 " fill-opacity="1" fill-rule="nonzero"/></g><g clip-path="url(#6f2a1f546f)"><path fill="#fbf3ec" d="M 28.949219 59.128906 C 28.945312 59.113281 28.945312 59.070312 28.921875 58.996094 C 28.90625 58.953125 28.886719 58.921875 28.871094 58.898438 C 28.835938 58.855469 28.785156 58.828125 28.722656 58.824219 L 28.976562 58.808594 Z M 28.949219 59.128906 " fill-opacity="1" fill-rule="nonzero"/></g><g clip-path="url(#7543c9c03a)"><path fill="#fbf3ec" d="M 28.941406 58.515625 C 28.9375 58.53125 28.941406 58.570312 28.917969 58.648438 C 28.902344 58.691406 28.886719 58.722656 28.871094 58.746094 C 28.835938 58.792969 28.785156 58.816406 28.722656 58.824219 L 28.976562 58.835938 Z M 28.941406 58.515625 " fill-opacity="1" fill-rule="nonzero"/></g><g clip-path="url(#de99ad6d76)"><path fill="#fbf3ec" d="M 28.949219 59.128906 C 28.953125 59.113281 28.953125 59.070312 28.976562 58.996094 C 28.988281 58.949219 29.007812 58.917969 29.023438 58.898438 C 29.058594 58.851562 29.109375 58.824219 29.171875 58.820312 L 28.917969 58.808594 Z M 28.949219 59.128906 " fill-opacity="1" fill-rule="nonzero"/></g><g clip-path="url(#e9038e46cb)"><path fill="#eeaa94" d="M 19.351562 5.285156 C 19.273438 5.375 19.167969 5.421875 19.039062 5.421875 C 18.980469 5.421875 18.914062 5.410156 18.84375 5.390625 C 18.230469 5.214844 17.753906 4.636719 17.5625 3.847656 C 17.46875 3.441406 17.472656 3.097656 17.585938 2.824219 C 17.683594 2.570312 17.859375 2.433594 18.074219 2.433594 C 18.308594 2.433594 18.566406 2.597656 18.734375 2.851562 C 19.039062 3.320312 19.382812 3.851562 19.476562 4.464844 C 19.503906 4.636719 19.542969 5.0625 19.351562 5.285156 Z M 60.949219 43.753906 C 60.191406 42.617188 57.917969 42.113281 56.785156 41.734375 C 55.207031 41.320312 53.621094 40.957031 52.035156 40.621094 C 51.429688 39.90625 50.765625 39.300781 50.183594 38.898438 C 47.652344 37.113281 44.855469 36.3125 42.148438 35.535156 C 41.21875 35.269531 40.257812 34.996094 39.335938 34.6875 C 38.398438 34.421875 37.421875 33.96875 36.390625 33.46875 C 36.539062 33.109375 36.574219 32.722656 36.445312 32.300781 C 36.386719 32.105469 36.296875 31.914062 36.183594 31.742188 C 35.527344 30.738281 34.082031 30.246094 32.804688 29.808594 C 32.238281 29.617188 31.703125 29.433594 31.277344 29.21875 C 30.699219 28.933594 30.125 28.683594 29.542969 28.433594 L 29.515625 28.421875 L 29.503906 28.394531 C 29.464844 28.296875 25.378906 18.417969 24.183594 14.632812 C 24.058594 14.214844 23.933594 13.785156 23.804688 13.335938 C 22.886719 10.164062 21.746094 6.21875 20.15625 3.570312 C 19.878906 3.105469 18.875 1.59375 17.664062 1.59375 C 17.234375 1.59375 16.824219 1.789062 16.4375 2.175781 C 15.75 2.859375 16.347656 4.5625 16.828125 5.933594 C 17.03125 6.503906 17.203125 6.996094 17.261719 7.339844 C 19.253906 14.109375 24.226562 29.921875 24.273438 30.082031 L 24.277344 30.089844 L 24.277344 30.097656 C 24.378906 31.398438 23.480469 33.011719 22.609375 34.570312 C 21.726562 36.15625 20.890625 37.65625 21.289062 38.550781 C 21.496094 39.023438 21.894531 39.347656 22.480469 39.527344 C 22.167969 39.851562 21.851562 40.175781 21.53125 40.503906 C 19.074219 43.03125 16.535156 45.644531 13.859375 47.949219 C 12.570312 49.109375 11.160156 50.164062 9.792969 51.1875 C 8.34375 52.277344 6.84375 53.398438 5.488281 54.648438 C 5.257812 54.859375 4.941406 55.121094 4.570312 55.421875 C 2.863281 56.8125 0.0078125 59.144531 0.886719 60.925781 C 1.132812 61.421875 1.625 61.671875 2.355469 61.671875 C 3.746094 61.671875 5.734375 60.753906 6.816406 60.09375 C 6.320312 60.777344 5.851562 61.53125 5.414062 62.410156 C 3.015625 67.449219 10.839844 62.535156 12.230469 61.527344 C 16.394531 58.25 17.785156 56.359375 21.191406 52.324219 C 21.515625 51.9375 21.828125 51.53125 22.140625 51.121094 C 19.738281 56.34375 17.191406 62.496094 18.339844 64.542969 C 18.5625 64.945312 18.917969 65.167969 19.421875 65.226562 C 19.527344 65.234375 19.636719 65.238281 19.742188 65.238281 C 20.519531 65.238281 21.25 65 21.941406 64.566406 C 21.910156 65.523438 22.011719 66.425781 22.328125 67.199219 C 24.597656 72.492188 27.5 64.929688 28.257812 62.660156 C 29.394531 59.257812 30.277344 55.601562 31.539062 52.324219 C 33.179688 55.351562 34.824219 67.199219 39.492188 67.199219 C 42.738281 67.199219 42.359375 62.671875 41.539062 58.410156 C 42.5625 59.433594 43.5625 60.0625 44.484375 60.0625 C 45.085938 60.0625 45.636719 59.785156 46.121094 59.234375 C 46.617188 58.617188 46.789062 57.777344 46.722656 56.792969 C 48.78125 57.875 50.941406 58.210938 52.871094 56.738281 C 55.269531 54.972656 54.007812 53.964844 52.238281 52.199219 C 50.851562 50.9375 49.460938 49.300781 47.820312 48.164062 C 51.480469 49.929688 56.578125 50.867188 59.988281 48.21875 C 61.375 47.210938 62.085938 45.390625 60.949219 43.753906 " fill-opacity="1" fill-rule="nonzero"/></g><path fill="#9999d2" d="M 12.816406 66.441406 C 12.46875 66.074219 11.835938 66.359375 11.835938 66.847656 C 11.835938 67.339844 12.46875 67.621094 12.816406 67.253906 C 12.828125 67.242188 12.839844 67.230469 12.851562 67.21875 C 13.050781 67.007812 13.050781 66.6875 12.851562 66.476562 C 12.839844 66.464844 12.828125 66.453125 12.816406 66.441406 " fill-opacity="1" fill-rule="nonzero"/><path fill="#9999d2" d="M 2.53125 62.941406 C 2.308594 62.8125 2.019531 62.976562 2.019531 63.234375 C 2.019531 63.492188 2.308594 63.65625 2.53125 63.527344 C 2.796875 63.371094 2.796875 63.097656 2.53125 62.941406 " fill-opacity="1" fill-rule="nonzero"/><path fill="#9999d2" d="M 4.773438 67.121094 C 4.78125 67.121094 4.78125 67.109375 4.773438 67.109375 C 4.761719 67.109375 4.761719 67.121094 4.773438 67.121094 " fill-opacity="1" fill-rule="nonzero"/><path fill="#9999d2" d="M 3.644531 68.722656 C 3.636719 68.734375 3.632812 68.738281 3.625 68.746094 C 3.378906 68.777344 3.183594 69.007812 3.183594 69.257812 C 3.183594 69.589844 3.515625 69.851562 3.839844 69.757812 C 4.148438 69.667969 4.4375 69.382812 4.410156 69.039062 C 4.382812 68.671875 3.933594 68.417969 3.644531 68.722656 " fill-opacity="1" fill-rule="nonzero"/><path fill="#9999d2" d="M 15.492188 60.40625 C 15.296875 60.40625 15.296875 60.707031 15.492188 60.707031 C 15.6875 60.707031 15.6875 60.40625 15.492188 60.40625 " fill-opacity="1" fill-rule="nonzero"/><path fill="#9999d2" d="M 19.378906 66.199219 C 19.234375 66.199219 19.234375 66.425781 19.378906 66.425781 C 19.527344 66.425781 19.527344 66.199219 19.378906 66.199219 " fill-opacity="1" fill-rule="nonzero"/><g clip-path="url(#76e5a7828e)"><path fill="#9999d2" d="M 23 71.667969 C 23.023438 70.972656 21.890625 70.976562 21.925781 71.667969 C 21.9375 71.898438 22 72.113281 22.214844 72.238281 C 22.445312 72.375 22.699219 72.300781 22.886719 72.132812 C 23.023438 72.011719 23.046875 71.832031 23 71.671875 C 23 71.671875 23 71.667969 23 71.667969 " fill-opacity="1" fill-rule="nonzero"/></g><path fill="#9999d2" d="M 16.429688 62.6875 C 16.246094 62.6875 16.246094 62.976562 16.429688 62.976562 C 16.617188 62.976562 16.617188 62.6875 16.429688 62.6875 " fill-opacity="1" fill-rule="nonzero"/><path fill="#9999d2" d="M 10.804688 64.214844 C 10.683594 64.214844 10.683594 64.394531 10.804688 64.394531 C 10.921875 64.394531 10.921875 64.214844 10.804688 64.214844 " fill-opacity="1" fill-rule="nonzero"/><path fill="#9999d2" d="M 10.046875 69.582031 C 10.046875 69.605469 10.042969 69.632812 10.042969 69.660156 C 10.015625 70.121094 10.785156 70.121094 10.757812 69.660156 C 10.757812 69.632812 10.757812 69.605469 10.753906 69.582031 C 10.730469 69.125 10.074219 69.125 10.046875 69.582031 " fill-opacity="1" fill-rule="nonzero"/><path fill="#9999d2" d="M 8.003906 65.65625 C 7.804688 65.5625 7.558594 65.671875 7.558594 65.910156 C 7.558594 66.152344 7.808594 66.261719 8.003906 66.167969 C 8.078125 66.132812 8.128906 66.097656 8.175781 66.027344 C 8.21875 65.960938 8.21875 65.859375 8.175781 65.792969 C 8.128906 65.722656 8.078125 65.691406 8.003906 65.65625 " fill-opacity="1" fill-rule="nonzero"/><path fill="#9999d2" d="M 16.675781 67.160156 C 16.6875 66.953125 16.535156 66.824219 16.367188 66.753906 C 16.046875 66.621094 15.710938 66.964844 15.664062 67.246094 C 15.609375 67.574219 15.800781 67.902344 16.164062 67.902344 C 16.527344 67.902344 16.714844 67.574219 16.664062 67.246094 C 16.683594 67.378906 16.671875 67.199219 16.675781 67.160156 " fill-opacity="1" fill-rule="nonzero"/><path fill="#9999d2" d="M 14.152344 63.238281 C 13.8125 63.199219 13.8125 63.804688 14.152344 63.765625 C 14.269531 63.753906 14.351562 63.738281 14.441406 63.65625 C 14.523438 63.578125 14.523438 63.425781 14.441406 63.347656 C 14.351562 63.265625 14.269531 63.25 14.152344 63.238281 " fill-opacity="1" fill-rule="nonzero"/><path fill="#9999d2" d="M 18.441406 69.445312 C 18.191406 69.445312 18.171875 69.621094 18.171875 69.902344 C 18.171875 70.1875 18.710938 70.1875 18.710938 69.902344 C 18.710938 69.902344 18.691406 69.445312 18.441406 69.445312 " fill-opacity="1" fill-rule="nonzero"/><path fill="#9999d2" d="M 34.417969 32.550781 C 32.832031 32.597656 31.175781 31.753906 29.949219 30.808594 C 29.734375 30.640625 29.941406 30.269531 30.171875 30.4375 C 31.492188 31.417969 32.917969 31.78125 34.457031 32.25 C 34.625 32.300781 34.59375 32.546875 34.417969 32.550781 Z M 30.558594 35.105469 C 29.492188 34.671875 28.878906 33.652344 28.429688 32.648438 C 28.355469 32.484375 28.589844 32.34375 28.667969 32.507812 C 29.128906 33.46875 29.714844 34.320312 30.660156 34.859375 C 30.789062 34.933594 30.703125 35.160156 30.558594 35.105469 Z M 25.898438 37.035156 C 25.777344 37.132812 25.546875 37.003906 25.660156 36.851562 C 26.628906 35.539062 26.1875 34.101562 26.425781 32.617188 C 26.449219 32.449219 26.730469 32.453125 26.761719 32.617188 C 26.996094 33.960938 27.101562 36.105469 25.898438 37.035156 Z M 25.078125 32.09375 C 24.742188 33.804688 23.996094 35.609375 22.917969 36.992188 C 22.769531 37.183594 22.4375 36.925781 22.582031 36.730469 C 23.664062 35.277344 23.980469 33.550781 24.746094 31.953125 C 24.839844 31.757812 25.113281 31.902344 25.078125 32.09375 Z M 24.8125 30.226562 C 26.523438 30.175781 27.859375 29.425781 29.351562 28.699219 C 29.515625 28.617188 29.71875 28.835938 29.558594 28.96875 C 28.273438 30.035156 26.472656 30.621094 24.8125 30.664062 C 24.53125 30.671875 24.53125 30.234375 24.8125 30.226562 Z M 18.863281 5.324219 C 18.1875 5.125 17.789062 4.476562 17.632812 3.828125 C 17.558594 3.511719 17.527344 3.160156 17.648438 2.847656 C 17.875 2.28125 18.421875 2.5 18.671875 2.890625 C 18.992188 3.378906 19.316406 3.890625 19.40625 4.472656 C 19.464844 4.855469 19.441406 5.492188 18.863281 5.324219 Z M 36.515625 32.28125 C 36.449219 32.070312 36.359375 31.878906 36.242188 31.703125 C 35.277344 30.234375 32.703125 29.851562 31.308594 29.15625 C 30.734375 28.871094 30.15625 28.621094 29.570312 28.367188 C 29.570312 28.367188 25.460938 18.4375 24.25 14.613281 C 23.242188 11.1875 22.03125 6.554688 20.21875 3.535156 C 19.613281 2.527344 18 0.511719 16.386719 2.125 C 15.378906 3.132812 16.992188 6.152344 17.191406 7.359375 C 19.210938 14.207031 24.207031 30.101562 24.207031 30.101562 C 24.410156 32.722656 20.417969 36.765625 21.226562 38.578125 C 22.636719 41.796875 32.109375 37.574219 33.726562 36.164062 C 34.800781 35.222656 37.054688 34.050781 36.515625 32.28125 " fill-opacity="1" fill-rule="nonzero"/><path fill="#f5d4af" d="M 49.324219 43.332031 C 46.757812 40.3125 43.601562 38.128906 39.914062 36.667969 C 39.746094 36.601562 39.816406 36.332031 39.988281 36.398438 C 43.480469 37.730469 47.496094 39.910156 49.492188 43.207031 C 49.550781 43.304688 49.402344 43.425781 49.324219 43.332031 Z M 45.820312 43.761719 C 44.539062 42.796875 43.253906 41.726562 42.15625 40.554688 C 42.023438 40.414062 42.238281 40.199219 42.371094 40.339844 C 43.480469 41.519531 44.871094 42.394531 45.96875 43.574219 C 46.054688 43.671875 45.933594 43.851562 45.820312 43.761719 Z M 43.390625 53.464844 C 43.4375 53.597656 43.226562 53.6875 43.160156 53.5625 C 42.101562 51.539062 41.277344 49.417969 40.101562 47.449219 C 38.867188 45.382812 37.429688 43.464844 35.742188 41.742188 C 35.628906 41.625 35.804688 41.449219 35.917969 41.5625 C 39.191406 44.839844 41.855469 49.089844 43.390625 53.464844 Z M 38.625 50.054688 C 37.21875 47.898438 36.375 45.480469 34.722656 43.460938 C 34.605469 43.316406 34.808594 43.109375 34.929688 43.253906 C 36.5625 45.203125 37.847656 47.589844 38.867188 49.914062 C 38.941406 50.074219 38.726562 50.210938 38.625 50.054688 Z M 20.890625 62.8125 C 20.789062 62.992188 20.511719 62.832031 20.617188 62.652344 C 24.109375 56.605469 25.421875 49.957031 26.855469 43.222656 C 26.886719 43.074219 27.140625 43.105469 27.121094 43.257812 C 26.285156 49.976562 24.308594 56.941406 20.890625 62.8125 Z M 27.105469 50.820312 C 26.667969 52.585938 26.015625 54.296875 25.519531 56.046875 C 25.46875 56.226562 25.183594 56.152344 25.234375 55.96875 C 25.726562 54.21875 26.265625 52.46875 26.867188 50.753906 C 26.917969 50.605469 27.144531 50.664062 27.105469 50.820312 Z M 21.074219 44.835938 C 18.683594 48.273438 15.117188 50.8125 11.933594 53.460938 C 9.257812 55.683594 6.503906 58.535156 2.996094 59.332031 C 2.847656 59.363281 2.785156 59.144531 2.933594 59.105469 C 6.570312 58.203125 9.414062 55.074219 12.199219 52.75 C 15.257812 50.199219 18.21875 47.65625 20.855469 44.664062 C 20.960938 44.546875 21.167969 44.703125 21.074219 44.835938 Z M 7.105469 54.96875 C 10.148438 52.722656 12.851562 50.007812 15.976562 47.882812 C 16.078125 47.8125 16.203125 47.972656 16.109375 48.054688 C 13.25 50.53125 10.304688 52.992188 7.261719 55.234375 C 7.101562 55.355469 6.949219 55.085938 7.105469 54.96875 Z M 50.183594 38.898438 C 47.652344 37.113281 44.855469 36.3125 42.148438 35.535156 C 41.21875 35.269531 40.257812 34.996094 39.335938 34.6875 C 38.421875 34.425781 37.464844 33.988281 36.457031 33.503906 C 36.003906 34.625 34.535156 35.457031 33.726562 36.164062 C 32.363281 37.351562 25.421875 40.539062 22.425781 39.585938 C 22.132812 39.886719 21.832031 40.195312 21.53125 40.503906 C 19.074219 43.03125 16.535156 45.640625 13.859375 47.949219 C 12.570312 49.109375 11.160156 50.164062 9.792969 51.1875 C 8.34375 52.277344 6.84375 53.398438 5.488281 54.648438 C 5.257812 54.859375 4.941406 55.121094 4.570312 55.421875 C 2.863281 56.8125 0.0078125 59.144531 0.886719 60.925781 C 1.132812 61.421875 1.625 61.671875 2.355469 61.671875 C 3.746094 61.671875 5.734375 60.753906 6.816406 60.09375 C 6.890625 60.046875 6.960938 60.003906 7.023438 59.960938 C 8.753906 58.839844 10.289062 57.402344 11.773438 56.015625 C 12.070312 55.742188 12.363281 55.464844 12.660156 55.191406 C 13.152344 54.746094 13.644531 54.300781 14.144531 53.847656 C 18.179688 50.203125 22.351562 46.429688 25.753906 42.316406 L 25.789062 42.273438 L 26.015625 42.382812 L 26 42.4375 C 25.777344 43.390625 24.804688 45.449219 23.574219 48.058594 C 23.125 49.007812 22.636719 50.046875 22.140625 51.117188 C 19.738281 56.34375 17.191406 62.496094 18.339844 64.542969 C 18.5625 64.945312 18.917969 65.167969 19.421875 65.226562 C 19.53125 65.234375 19.636719 65.238281 19.742188 65.238281 C 20.519531 65.238281 21.25 65 21.941406 64.566406 C 26.082031 61.980469 28.726562 52.503906 30.402344 46.496094 C 30.9375 44.582031 31.398438 42.929688 31.78125 41.953125 L 31.898438 41.65625 L 32.039062 41.941406 C 32.195312 42.25 32.433594 42.765625 32.738281 43.421875 C 34.363281 46.933594 38.070312 54.941406 41.539062 58.410156 C 42.5625 59.433594 43.5625 60.0625 44.484375 60.0625 C 45.085938 60.0625 45.636719 59.78125 46.121094 59.234375 C 46.617188 58.617188 46.792969 57.777344 46.722656 56.792969 C 46.386719 51.855469 39.960938 43.238281 37.25 40.082031 L 37.210938 40.035156 L 37.378906 39.835938 L 37.429688 39.867188 C 38.59375 40.542969 39.886719 41.710938 41.257812 42.949219 C 43.890625 45.335938 46.878906 48.035156 49.878906 48.035156 C 50.476562 48.035156 51.0625 47.929688 51.621094 47.714844 C 53.003906 47.136719 53.769531 46.257812 53.894531 45.097656 C 54.050781 43.605469 53.140625 41.929688 52.035156 40.621094 C 51.429688 39.90625 50.765625 39.300781 50.183594 38.898438 " fill-opacity="1" fill-rule="nonzero"/><path fill="#f5d4af" d="M 22.726562 47.050781 C 20.203125 52.695312 14.695312 57.234375 9.667969 60.605469 C 9.398438 60.785156 9.648438 61.222656 9.925781 61.042969 C 15.367188 57.59375 20.601562 53.332031 22.804688 47.085938 C 22.820312 47.039062 22.746094 47.007812 22.726562 47.050781 " fill-opacity="1" fill-rule="nonzero"/><path fill="#f5d4af" d="M 33.160156 49.042969 C 33.113281 48.855469 32.828125 48.933594 32.875 49.121094 C 34.074219 54.070312 35.691406 59.054688 38.242188 63.496094 C 38.316406 63.625 38.511719 63.511719 38.445312 63.375 C 36.222656 58.726562 34.402344 54.046875 33.160156 49.042969 " fill-opacity="1" fill-rule="nonzero"/><path fill="#f5d4af" d="M 51.339844 54.648438 C 48.800781 53.085938 47.222656 50.761719 45.441406 48.441406 C 45.386719 48.367188 45.257812 48.441406 45.316406 48.515625 C 47.042969 50.769531 48.664062 53.421875 51.277344 54.753906 C 51.347656 54.792969 51.410156 54.691406 51.339844 54.648438 " fill-opacity="1" fill-rule="nonzero"/><path fill="#f5d4af" d="M 58.980469 44.738281 C 57.957031 44.597656 57.035156 44.421875 56.097656 43.949219 C 55.949219 43.875 55.820312 44.089844 55.96875 44.171875 C 56.855469 44.679688 57.90625 45.097656 58.949219 44.992188 C 59.082031 44.980469 59.136719 44.761719 58.980469 44.738281 " fill-opacity="1" fill-rule="nonzero"/><path fill="#f5d4af" d="M 56.972656 46.539062 C 56.746094 46.445312 56.480469 46.414062 56.242188 46.332031 C 55.976562 46.238281 55.746094 46.078125 55.523438 45.90625 C 55.34375 45.769531 55.167969 46.050781 55.296875 46.203125 C 55.644531 46.605469 56.429688 47.003906 56.972656 46.800781 C 57.109375 46.753906 57.097656 46.59375 56.972656 46.539062 " fill-opacity="1" fill-rule="nonzero"/><path fill="#f5d4af" d="M 29.101562 53.371094 C 27.75 57.882812 27.492188 62.761719 23.6875 66.0625 C 23.585938 66.148438 23.71875 66.320312 23.828125 66.246094 C 27.824219 63.574219 28.523438 57.769531 29.292969 53.421875 C 29.3125 53.300781 29.136719 53.246094 29.101562 53.371094 " fill-opacity="1" fill-rule="nonzero"/><path fill="#f5d4af" d="M 17.636719 5.5625 C 17.371094 5.152344 17.128906 4.726562 17 4.253906 C 16.894531 3.878906 16.910156 3.480469 16.777344 3.117188 C 16.734375 2.996094 16.546875 3.007812 16.546875 3.148438 C 16.550781 4.101562 16.910156 4.9375 17.484375 5.675781 C 17.550781 5.765625 17.695312 5.652344 17.636719 5.5625 " fill-opacity="1" fill-rule="nonzero"/><path fill="#f5d4af" d="M 21.824219 19.128906 C 22.804688 22.316406 23.816406 25.503906 24.714844 28.714844 C 24.753906 28.84375 24.945312 28.789062 24.914062 28.660156 C 24.234375 25.59375 23.136719 22.578125 22.214844 19.578125 C 20.929688 15.390625 19.863281 10.960938 18.15625 6.925781 C 18.101562 6.792969 17.886719 6.851562 17.941406 6.984375 C 19.574219 10.859375 20.59375 15.109375 21.824219 19.128906 " fill-opacity="1" fill-rule="nonzero"/></svg>